<svg xmlns="http://www.w3.org/2000/svg"><symbol id="artboard-1" viewBox="0 0 256 256"><path d="M110.8.4l110.6 63.9v127.8L110.8 256 .1 192.1V64.3L110.8.4z"/><path fill="#fff" d="M48.2 180l-4.8-6.9a2.3 2.3 0 0 1 .2-2.5L61 150h-8.6a2 2 0 0 1-2.1-2.1v-15.1a2.1 2.1 0 0 1 2.1-2.1h12.2a57.1 57.1 0 0 1-2.3-15.9A49.8 49.8 0 0 1 112 65.2c27.1 0 49.6 22.5 49.6 49.6a50.7 50.7 0 0 1-2.4 15.9h12.2a2 2 0 0 1 2.1 2.1v15.1a1.9 1.9 0 0 1-2.1 2.1h-10.7l17.2 20.6a2.1 2.1 0 0 1 0 2.5l-4.8 6.9a2.2 2.2 0 0 1-2.7.7l-10.1-5.3H61l-10.1 5.3a2.2 2.2 0 0 1-2.7-.7zm31.9-30H66.3l-18.5 21.9 2.9 4.2 35.5-18.7zm-25.6-15.1v10.9h114.8v-10.9zm14.5-4.2h85.8a50 50 0 0 0 2.6-15.9 45.5 45.5 0 0 0-90.9 0c0 5.4.4 11.1 2.5 15.9zm20.1 30l-19.9 10.5h28.5zM85.6 150l17.6 21.2h15.1l17.6-21.2zm46.8 10.7l-8.6 10.5h28.5zm22.9-10.7h-13.9l-6.3 7.4 35.7 18.7 2.9-4z"/></symbol><symbol id="artboard-3" viewBox="0 0 256 256"><path d="M112.5 3.4l109.3 63.2v126.3L112.5 256 3.1 192.9V66.6L112.5 3.4z"/><path fill="#fff" d="M52.5 176.4a2.1 2.1 0 0 1-2.1-2.1v-25.1H23.1a2.2 2.2 0 0 1-2.1-2.1 2.3 2.3 0 0 1 2.1-2.1h15.5v-13.4a1.9 1.9 0 0 1 2.1-2.1h8.1a65.8 65.8 0 0 1 63.5-50.4c.2-.2.4-.2.8 0 30.7.2 56.2 21.8 63 50.4h8.1a1.9 1.9 0 0 1 2.1 2.1V145h15.6a2.2 2.2 0 0 1 2 2.1 2.2 2.2 0 0 1-2 2.1h-27.4v25.1a2 2 0 0 1-2.1 2.1zm-9.7-42.8V145h139.4v-11.4zm65.5-50.2c-26.5 1.7-48.7 21-55.2 46.1h22.2zm-53.7 65.8v23h55.8v-23zm55.8-61.6l-29.9 41.9h29.9zm4.1-4.4v46.3h57.3c-6.4-25.7-29.7-45.2-57.3-46.3zm0 66v23h9.4v-23zm13.5 0v23h42.3v-23z"/></symbol><symbol id="artboard-2" viewBox="0 0 256 256"><path d="M112.3 1.4l110.3 63.7v127.3L112.3 256 2.1 192.4V65.1L112.3 1.4z"/><path fill="#fff" d="M48.4 175.7a2.1 2.1 0 1 1 0-4.1h10.4v-13.2H48.4a2 2 0 0 1-2.1-2.1v-41.2a2 2 0 0 1 2.1-2.1h13.8c1-29.7 23.2-46 50.1-46s49.2 16.3 50.2 46h13.8a2 2 0 0 1 2.1 2.1v41.2a2 2 0 0 1-2.1 2.1h-10.5v13.2h10.5a2.1 2.1 0 1 1 0 4.1zm2-58.5v37h123.8v-37zM63 158.4v13.2h13.4v-13.2zm3.3-45.4h92c-1-27-21.5-41.8-46-41.8S67.4 86 66.3 113zm14.2 45.4v13.2h21v-13.2zm25.1 0v13.2H119v-13.2zm56.7-14.2h-51a2.3 2.3 0 0 1-2.1-2.1 2.2 2.2 0 0 1 2.1-2.1h51a2.3 2.3 0 0 1 2.1 2.1 2.3 2.3 0 0 1-2.1 2.1zm-39.1 14.2v13.2h20.9v-13.2zm25.1 0v13.2h13.4v-13.2z"/></symbol></svg>